<?xml version="1.0" standalone="no"?><!DOCTYPE svg PUBLIC "-//W3C//DTD SVG 1.1//EN" "http://www.w3.org/Graphics/SVG/1.1/DTD/svg11.dtd"><svg t="1546680193024" class="icon" style="" viewBox="0 0 1024 1024" version="1.1" xmlns="http://www.w3.org/2000/svg" p-id="8078" xmlns:xlink="http://www.w3.org/1999/xlink" width="200" height="200"><defs><style type="text/css"></style></defs><path d="M936.043 405.162V274s0.569-20.5-9-33.026c-7.255-9.496-35.043-10-35.043-10H117s-31.5 0-38 7C69.846 247.833 72 279 72 279v125.374c50.239 13.894 87.644 66.858 87.644 130.114 0 63.255-37.404 116.213-87.644 130.114V802s4.704 22.326 10 28c14 15 52.332 8 31 8h768s29.81 0.431 41.043-10c14-13 14-41 14-41V663.813c-48.832-15.063-84.852-67.245-84.852-129.326s36.02-114.268 84.852-129.325z m-176.502 240.27H264.795v-42.193h494.746v42.193z m0-179.703H264.795v-42.186h494.746v42.186z m0 0" fill="#dbdbdb" p-id="8079"></path></svg>