<?xml version="1.0" standalone="no"?><!DOCTYPE svg PUBLIC "-//W3C//DTD SVG 1.1//EN" "http://www.w3.org/Graphics/SVG/1.1/DTD/svg11.dtd"><svg t="1546680231068" class="icon" style="" viewBox="0 0 1024 1024" version="1.1" xmlns="http://www.w3.org/2000/svg" p-id="9535" xmlns:xlink="http://www.w3.org/1999/xlink" width="200" height="200"><defs><style type="text/css"></style></defs><path d="M64.044642 259.986289c0-22.581298 3.422959-38.687114 10.276041-48.317449 6.857175-9.608845 22.094204-14.421454 45.692668-14.421454l146.220223 0L266.233574 824.706001l-62.832024 0c-16.751522 0-33.305547-0.217964-49.684586-0.63445-16.368806-0.415462-27.606755-0.63445-33.704636-0.63445-20.558222 0.852414-35.022655-2.90926-43.406602-11.292184-8.367575-8.356318-12.562107-24.24417-12.562107-47.682999l0-180.695409c0-9.215896 1.334391-16.111956 3.997034-20.706601 2.669806-4.614088 8.181333-7.743358 16.566304-9.405207 3.039219 0 7.229658-1.269923 12.57234-3.790326 5.316076-2.494821 10.652618-6.475482 15.985066-11.900028 5.327332-5.453199 9.898441-12.562107 13.710256-21.341051 3.806699-8.79941 5.709025-19.452028 5.709025-31.991622 0-19.261693-4.757351-34.317597-14.279215-45.194318-9.521864-10.872628-19.62292-17.135262-30.275537-18.819624-8.382924-1.661849-14.465456-4.374634-18.277272-8.16496-3.806699-3.761674-5.709025-10.237155-5.709025-19.430538L64.042595 259.986289 64.044642 259.986289 64.044642 259.986289zM936.87878 394.268622c-9.990538 2.493797-17.690918 7.312546-23.110347 14.421454-5.415336 7.115048-8.324596 14.442944-8.740058 21.973454-0.414439 7.525394 1.662873 15.055904 6.245238 22.586414 4.578272 7.525394 11.45796 12.94994 20.60734 16.324804 8.334829 3.324722 14.585183 8.356318 18.741853 15.055904 4.166903 6.67298 6.464225 13.787004 6.885827 21.312398 0.404206 7.552-1.049912 14.645558-4.380774 21.339004-3.335978 6.693446-8.334829 11.731182-14.990413 15.055904-20.820188 10.044774-31.654954 22.170952-32.484855 36.389792-0.831948 14.223956 7.075139 25.517163 23.734564 33.902134 7.491625 3.324722 13.535271 8.55791 18.117636 15.690354 4.583388 7.092535 7.077186 14.617929 7.492648 22.563902 0.415462 7.962346-1.038656 15.077394-4.374634 21.333888-3.324722 6.2831-8.744151 10.68127-16.237823 13.196557-10.001795 2.498914-17.691941 7.115048-23.11137 13.787004-5.414313 6.699586-8.334829 13.808494-8.750291 21.339004-0.415462 7.53051 1.674129 15.055904 6.256494 22.607904 4.572132 7.503904 11.862165 13.787004 21.86396 18.797112 6.650467 3.347235 11.446703 8.580422 14.355963 15.690354 2.920516 7.115048 3.959172 14.028505 3.12927 20.727067-0.831948 6.670933-3.12927 12.736069-6.875594 18.183128-3.750417 5.447059-8.945743 8.159844-15.612583 8.159844L323.700403 824.706001 323.700403 197.247386l609.438193 0c6.659677 0 11.861142 2.712785 15.613606 8.16496 3.752464 5.424546 5.829775 11.485589 6.245238 18.185174 0.415462 6.693446-1.038656 13.393032-4.374634 20.086477-3.324722 6.678096-8.744151 11.294231-16.237823 13.793144-7.496741 2.51631-13.535271 6.693446-18.117636 12.55699-4.578272 5.867638-7.278777 12.343119-8.120958 19.435655-0.831948 7.131421 0.843204 14.028505 4.997827 20.721951 4.173043 6.699586 11.238972 11.709693 21.240767 15.055904 7.492648 3.353374 13.535271 8.362458 18.11866 15.055904 4.588505 6.699586 7.081279 13.589506 7.496741 20.704554 0.415462 7.108908-1.24741 13.808494-5.003967 20.087501C951.256232 387.377678 945.208493 391.753335 936.87878 394.268622L936.87878 394.268622 936.87878 394.268622zM693.574429 478.347552c-4.160763 0-8.53642-0.415462-13.124925-1.24741-4.571109-0.852414-5.621021-3.347235-3.110851-7.53051 0.829901-1.684362 4.789073-7.547907 11.866259-17.572214 7.072069-10.04068 14.979156-20.719904 23.734564-32.014134 8.744151-11.292184 16.871249-21.951965 24.370037-31.991622 7.491625-10.04682 12.063757-16.303314 13.743002-18.824741 4.15667-6.693446 1.661849-14.640442-7.498788-23.849174-1.673106-1.661849-4.997827-4.183276-9.996678-7.507998-5.003967-3.368724-9.576099-5.863545-13.744026-7.547907-6.665817-2.498914-11.44568-2.914376-14.366196-1.251503-2.914376 1.666966-6.460132 5.430686-10.614755 11.292184-1.674129 2.515287-5.829775 8.580422-12.507872 18.21178-6.66684 9.602705-13.732769 19.847024-21.23565 30.746258-7.496741 10.856255-14.361079 20.699438-20.61655 29.477358-6.245238 8.776897-9.784854 14.004969-10.614755 15.690354-1.662873 3.346211-4.79112 4.593622-9.363252 3.761674-4.587482-0.831948-7.716752-2.931772-9.378601-6.277984-0.831948-1.662873-4.572132-6.475482-11.249205-14.421454-6.650467-7.969509-13.744026-16.95823-21.23565-26.984584-7.487531-10.044774-14.788821-19.457144-21.86396-28.229948-7.082302-8.79941-11.862165-14.858406-14.367219-18.205641-7.498788-14.223956-15.405875-18.823718-23.734564-13.808494-5.829775 3.347235-11.041474 6.913457-15.625886 10.67513-4.571109 3.768837-8.951883 6.89606-13.119809 9.41237-8.328689 5.841032-9.564843 13.393032-3.739161 22.586414 14.158465 16.740266 26.65508 32.210609 37.482683 46.436612 9.160637 11.70867 17.899672 23.000853 26.228361 33.879622 8.339946 10.871605 13.328563 17.155728 14.990413 18.817578 1.680269 3.347235 0 5.031597-4.997827 5.031597L544.904411 477.101165c-4.167926 0-10.210549 0.197498-18.11866 0.61296-7.913227 0.414439-15.214517 0.217964-21.86396-0.61296-6.677073 0-12.081153 1.662873-16.235776 5.015224-4.173043 3.347235-5.41943 7.525394-3.75758 12.539594 0.831948 3.347235 1.252527 8.377808 1.252527 15.050788l0 15.061021c0 4.199649 1.246387 6.497994 3.739161 6.912433 2.505054 0.415462 5.415336 0.635473 8.750291 0.635473l72.473615 0c9.986445 0 14.979156 2.077312 14.979156 6.260587l0 23.849174c0 4.184299-0.820692 6.285147-2.493797 6.285147l-6.251378 0-12.496615 0L539.900443 568.710606l-24.993231 0-14.984273 0c-5.003967-0.859577-8.328689 0.414439-10.002818 3.761674-1.661849 3.324722-2.914376 7.115048-3.739161 11.294231-0.837064 4.178159-0.837064 8.137331 0 11.904121 0.824785 3.76372 1.246387 6.913457 1.246387 9.428743 0 10.856255 5.414313 16.307408 16.237823 16.307408l74.961272 0c4.172019 0 6.677073 0.62831 7.496741 1.88186 0.831948 1.24741 1.258667 3.981684 1.258667 8.15882 0.829901 4.183276 1.038656 11.70867 0.623193 22.586414-0.415462 10.876722-0.623193 17.987676-0.623193 21.333888 0 9.194406 5.414313 13.808494 16.235776 13.808494l39.983643 0c6.661723 0 9.986445-2.099824 9.986445-6.277984l0-8.772804 0-41.425482c0-8.362458 3.756557-12.539594 11.249205-12.539594l11.249205 0c5.834892 0 12.278651-0.220011 19.35993-0.635473 7.088442-0.414439 13.950733-0.63445 20.623713-0.63445l16.235776 0c11.655458 0 17.485233-4.178159 17.485233-12.539594L749.790778 578.73389c0-7.53051-4.15667-11.294231-12.480242-11.294231L664.835897 567.43966c-8.323573 1.684362-12.496615 0-12.496615-5.009084 0-2.51631-0.206708-5.64865-0.623193-9.411347-0.415462-3.76372-0.624217-7.335059-0.624217-10.67513 0-3.330862 1.456165-5.846148 4.380774-7.53051 2.910283-1.662873 6.03853-2.494821 9.363252-2.494821l73.713862 0c8.328689 0 12.496615-2.935865 12.496615-8.79941l0-30.111808c0-3.351328-1.465374-6.699586-4.375657-10.044774-2.920516-3.347235-6.458085-5.009084-10.626012-5.009084l-42.4713 0L693.573405 478.347552 693.574429 478.347552zM693.574429 478.347552" p-id="9536" fill="#dbdbdb"></path></svg>