<?xml version="1.0" standalone="no"?><!DOCTYPE svg PUBLIC "-//W3C//DTD SVG 1.1//EN" "http://www.w3.org/Graphics/SVG/1.1/DTD/svg11.dtd"><svg t="1546914721932" class="icon" style="" viewBox="0 0 1024 1024" version="1.1" xmlns="http://www.w3.org/2000/svg" p-id="17225" xmlns:xlink="http://www.w3.org/1999/xlink" width="200" height="200"><defs><style type="text/css"></style></defs><path d="M696.8 825.8h56v-56.5h-56v56.5z m0-96.1h56v-56.5h-56v56.5z m0-90.4h56v-56.5h-56v56.5z m0-96.1h56v-56.5h-56v56.5z m0-96.1h56v-56.5h-56v56.5zM433.6 825.8h56v-56.5h-56v56.5z m-128.8 0h56v-56.5h-56v56.5z m128.8-96.1h56v-56.5h-56v56.5z m-128.8 0h56v-56.5h-56v56.5z m128.8-90.4h56v-56.5h-56v56.5z m-128.8 0h56v-56.5h-56v56.5z m128.8-96.1h56v-56.5h-56v56.5z m-128.8 0h56v-56.5h-56v56.5z m128.8-96.1h56v-56.5h-56v56.5z m-128.8 0h56v-56.5h-56v56.5z m128.8-90.4h56v-56.5h-56v56.5z m-128.8 0h56v-56.5h-56v56.5zM820 871H624V243.6l162.4 56.5h5.6c5.6 0 28 5.7 28 62.2V871z m-252 0H204V311.5c0-39.6 22.4-50.9 28-50.9l336-96.1V871z m364 0h-56V362.3c0-79.1-44.8-113-72.8-118.7L624 187.1v-62.2c0-11.3-5.6-17-11.2-22.6-5.6-5.7-16.8-5.7-22.4-5.7L215.2 204.1s-67.2 17-67.2 107.4V871H92c-16.8 0-28 11.3-28 28.3s11.2 28.3 28 28.3h840c16.8 0 28-11.3 28-28.3S948.8 871 932 871z" p-id="17226" fill="#63473a"></path></svg>