<?xml version="1.0" standalone="no"?><!DOCTYPE svg PUBLIC "-//W3C//DTD SVG 1.1//EN" "http://www.w3.org/Graphics/SVG/1.1/DTD/svg11.dtd"><svg t="1546914681630" class="icon" style="" viewBox="0 0 1024 1024" version="1.1" xmlns="http://www.w3.org/2000/svg" p-id="16392" xmlns:xlink="http://www.w3.org/1999/xlink" width="200" height="200"><defs><style type="text/css"></style></defs><path d="M847.6869 868.460528 539.677874 868.460528 539.677874 510.191818l308.009026 0L847.6869 868.460528 847.6869 868.460528zM176.464549 510.191818l307.257919 0 0 358.26871-307.257919 0L176.464549 510.191818 176.464549 510.191818zM119.967814 345.42724l363.754654 0 0 109.719914-363.754654 0L119.967814 345.42724 119.967814 345.42724zM903.430482 455.147154 539.677874 455.147154 539.677874 345.42724l363.753631 0L903.431505 455.147154 903.430482 455.147154zM281.670659 151.818731c69.530586 0 142.205792 80.456427 181.937702 138.52189l-94.776573 0c-65.22656 0-137.201825-33.813107-137.201825-94.963839C231.629963 165.246555 247.026628 151.818731 281.670659 151.818731L281.670659 151.818731zM742.473627 151.818731c34.561144 0 50.039673 14.300704 50.039673 44.429909 0 61.147662-69.408813 94.091982-134.63435 94.091982l-94.731548 0C602.917174 232.275157 672.861176 151.818731 742.473627 151.818731L742.473627 151.818731zM959.386912 345.42724c0-30.397311-25.043373-55.044664-55.95643-55.044664l-95.272877 0c24.654516-23.963785 40.311101-55.487755 40.311101-94.133937 0-47.680952-27.856441-99.474572-105.995079-99.474572-102.843296 0-188.725292 107.688651-229.118258 168.095439-40.311101-60.405765-128.923278-168.095439-231.68471-168.095439-78.138638 0-106.032942 51.79362-106.032942 99.474572 0 38.646182 16.077164 70.170153 41.234123 94.133937l-96.903004 0c-30.874171 0-55.955406 24.647353-55.955406 55.044664l0 164.764578 56.413847 0 0 358.26871c0 30.397311 25.081235 55.023174 56.038294 55.023174l671.222351 0c30.913057 0 55.955406-24.62484 55.955406-55.023174L903.64333 510.191818l55.745628 0L959.388958 345.42724 959.386912 345.42724z" p-id="16393" fill="#63473a"></path></svg>