<?xml version="1.0" standalone="no"?><!DOCTYPE svg PUBLIC "-//W3C//DTD SVG 1.1//EN" "http://www.w3.org/Graphics/SVG/1.1/DTD/svg11.dtd"><svg t="1546678757030" class="icon" style="" viewBox="0 0 1024 1024" version="1.1" xmlns="http://www.w3.org/2000/svg" p-id="1243" xmlns:xlink="http://www.w3.org/1999/xlink" width="200" height="200"><defs><style type="text/css"></style></defs><path d="M665.16005925 833.20604446H411.02601482a27.1853037 27.1853037 0 0 0 0 54.61333333h254.13404443a27.1853037 27.1853037 0 1 0 0-54.61333333z m192.96711112-106.55668148v-1.21362964c0-1.21362963-0.24272592-1.94180741-0.24272592-3.15543703a0.9709037 0.9709037 0 0 0-0.24272593-0.97090371l-0.9709037-3.88361481c0-0.24272592-0.24272592-0.48545185-0.24272593-1.21362963l-0.97090371-2.66998518c-0.24272592-0.24272592-0.24272592-0.9709037-0.48545185-1.21362964l-1.21362963-2.66998518c0-0.24272592-0.24272592-0.48545185-0.24272592-0.9709037s-0.9709037-1.94180741-1.45635556-2.91271112l-60.68148147-107.04213333V448.72817779c0-46.36065185-16.99081482-95.14856297-47.5742815-137.38287408a268.21214815 268.21214815 0 0 0-98.304-82.28408888 106.79940741 106.79940741 0 0 0-32.28254814-73.78868149h-0.24272593L609.09037037 151.87437038c-0.24272592-0.24272592-0.48545185-0.24272592-0.48545185-0.48545185l-3.15543704-2.66998519-1.21362963-0.9709037-2.66998518-1.94180741-1.94180742-1.45635555-1.9418074-1.45635556-2.66998518-1.69908148-1.45635556-0.97090371-3.64088889-1.9418074-0.9709037-0.48545185-4.36906667-2.42725926A103.64397037 103.64397037 0 0 0 538.69985185 125.17451853a108.01303703 108.01303703 0 0 0-45.8752 10.19448889l-4.36906667 2.42725926-0.9709037 0.48545185-3.64088889 1.9418074-1.45635556 0.97090371-2.66998518 1.69908148-1.9418074 1.45635556-1.94180742 1.45635555-2.66998518 1.94180741-1.21362963 0.9709037-3.15543704 2.66998519c-0.24272592 0.24272592-0.48545185 0.24272592-0.48545185 0.48545185l-3.39816296 3.15543704a106.79940741 106.79940741 0 0 0-32.28254815 73.78868148 270.63940741 270.63940741 0 0 0-98.304 82.28408889c-30.82619259 42.23431111-47.57428148 91.02222222-47.57428147 137.38287407v150.24734815l-60.6814815 107.04213333a13.59265185 13.59265185 0 0 0-1.45635555 2.91271112 0.9709037 0.9709037 0 0 0-0.24272592 0.9709037l-1.21362963 2.66998518c-0.24272592 0.24272592-0.24272592 0.9709037-0.48545185 1.21362964l-0.97090371 2.66998518c0 0.24272592-0.24272592 0.48545185-0.24272592 1.21362963l-0.9709037 3.88361481a0.9709037 0.9709037 0 0 1-0.24272594 0.97090371 10.92266667 10.92266667 0 0 0-0.24272592 3.15543703v1.21362964c0 1.21362963-0.24272592 2.42725925-0.24272593 3.88361481a22.33078518 22.33078518 0 0 0 0.24272593 4.36906667v1.21362963c0.24272592 1.45635555 0.24272592 2.91271111 0.48545186 4.36906667a24.75804445 24.75804445 0 0 0 1.21362962 4.36906666v0.48545184a60.68148148 60.68148148 0 0 0 4.36906666 9.95176297 48.78791111 48.78791111 0 0 0 27.9134815 22.33078519h0.9709037l4.12634073 1.21362962h0.24272593l4.36906667 0.48545186h551.4733037l4.36906667-0.48545186h0.24272593a16.99081482 16.99081482 0 0 0 4.12634074-1.21362962h0.9709037a50.24426667 50.24426667 0 0 0 27.91348148-22.33078519 60.43875555 60.43875555 0 0 0 4.36906667-9.95176297v-0.48545184a10.19448889 10.19448889 0 0 1 0.24272592-4.12634074 29.12711111 29.12711111 0 0 0 0.48545186-4.61179259v-1.21362963c0-1.45635555 0.24272592-2.91271111 0.24272592-4.36906667a17.96171852 17.96171852 0 0 0 0-3.88361481z" p-id="1244" fill="#ffffff"></path></svg>