<?xml version="1.0" standalone="no"?><!DOCTYPE svg PUBLIC "-//W3C//DTD SVG 1.1//EN" "http://www.w3.org/Graphics/SVG/1.1/DTD/svg11.dtd"><svg t="1546680289036" class="icon" style="" viewBox="0 0 1628 1024" version="1.1" xmlns="http://www.w3.org/2000/svg" p-id="13611" xmlns:xlink="http://www.w3.org/1999/xlink" width="317.96875" height="200"><defs><style type="text/css"></style></defs><path d="M1167.90943 104.580449l-3.555999-3.555998C1031.804496-29.533486 820.466599-34.084483 682.370667 90.500456 544.275734-34.084483 332.936837-29.391486 200.387902 101.024451 65.136968 234.570385 63.571969 452.450279 197.116904 587.843213l3.269998 3.269998L604.149705 991.179016c42.381979 43.234979 111.784945 43.803979 155.019924 1.422999l1.422-1.422999 403.761802-399.779805c135.393934-133.401935 137.099933-351.424828 3.555999-486.817762z m-132.121936 284.296861c-9.955995 0-18.204991-8.105996-18.204991-18.203991 0-65.562968-53.189974-118.753942-118.752942-118.753942-4.835998 0-9.528995-1.989999-12.941994-5.403997-3.413998-3.412998-5.404997-8.106996-5.404997-12.941994a18.147991 18.147991 0 0 1 18.204991-18.203991c85.757958 0 155.303924 69.544966 155.303924 155.303924 0 9.954995-8.106996 18.203991-18.203991 18.203991z" p-id="13612" fill="#dbdbdb"></path></svg>