<?xml version="1.0" standalone="no"?><!DOCTYPE svg PUBLIC "-//W3C//DTD SVG 1.1//EN" "http://www.w3.org/Graphics/SVG/1.1/DTD/svg11.dtd"><svg t="1546680248374" class="icon" style="" viewBox="0 0 1024 1024" version="1.1" xmlns="http://www.w3.org/2000/svg" p-id="10363" xmlns:xlink="http://www.w3.org/1999/xlink" width="200" height="200"><defs><style type="text/css"></style></defs><path d="M821.76 102.4l-71.68 76.8-71.68-76.8h-15.36l-71.68 76.8-71.68-76.8h-15.36l-71.68 76.8-71.68-76.8H345.6l-71.68 76.8-71.68-76.8c-25.6 0-48.64 23.04-48.64 51.2V768c0 84.48 69.12 153.6 153.6 153.6h409.6c84.48 0 153.6-69.12 153.6-153.6V153.6c0-28.16-23.04-51.2-48.64-51.2zM691.2 640H332.8c-15.36 0-25.6-10.24-25.6-25.6s10.24-25.6 25.6-25.6h358.4c15.36 0 25.6 10.24 25.6 25.6S706.56 640 691.2 640z m0-179.2H332.8c-15.36 0-25.6-10.24-25.6-25.6s10.24-25.6 25.6-25.6h358.4c15.36 0 25.6 10.24 25.6 25.6s-10.24 25.6-25.6 25.6z" p-id="10364" fill="#dbdbdb"></path></svg>