<?xml version="1.0" encoding="UTF-8"?>
<svg width="269px" height="351px" viewBox="0 0 269 351" version="1.1" xmlns="http://www.w3.org/2000/svg" xmlns:xlink="http://www.w3.org/1999/xlink">
    <!-- Generator: Sketch 52.4 (67378) - http://www.bohemiancoding.com/sketch -->
    <title>订单 (1) 2</title>
    <desc>Created with Sketch.</desc>
    <g id="Page-1" stroke="none" stroke-width="1" fill="none" fill-rule="evenodd">
        <g id="订单-(1)-2">
            <g id="订单-(1)" transform="translate(-0.000000, 0.000000)">
                <path d="M258.609827,48.6084432 L216.03095,8.38887648 C212.345485,4.90004467 207.875879,2.58722359 203.092617,1.25441144 C202.700546,1.09761001 202.308476,1.01920929 201.877198,0.90160822 C199.563981,0.352803216 197.17235,0 194.702304,0 L34.8158772,0 C15.6044134,0 0,15.1313379 0,33.7123073 L0,317.562095 C0,335.986263 15.4867922,351 34.5414277,351 L234.262237,351 C253.395286,351 268.9997,335.907862 268.9997,317.405294 L268.9997,72.5990619 C269.038907,63.62218 265.235821,54.8805003 258.609827,48.6084432 Z M245.906736,58.2909314 L214.580288,58.2909314 C210.777202,58.2909314 207.679844,55.4685057 207.679844,51.9796739 L207.679844,22.1482019 L245.906736,58.2909314 Z M234.301444,335.202256 L34.5414277,335.202256 C24.1907615,335.202256 15.7612417,327.283784 15.7612417,317.522895 L15.7612417,33.673107 C15.7612417,23.7946169 24.3083827,15.7193433 34.8158772,15.7193433 L191.918602,15.7193433 L191.918602,51.9796739 C191.918602,64.1317847 202.073233,74.0102747 214.580288,74.0102747 L253.238458,74.0102747 L253.238458,317.287693 C253.277665,327.205383 244.769731,335.202256 234.301444,335.202256 Z" id="形状" fill="#2B4C7E" fill-rule="nonzero"></path>
                <path d="M234.301444,335.202256 L34.5414277,335.202256 C24.1907615,335.202256 15.7612417,327.283784 15.7612417,317.522895 L15.7612417,33.673107 C15.7612417,23.7946169 24.3083827,15.7193433 34.8158772,15.7193433 L191.918602,15.7193433 L191.918602,51.9796739 C191.918602,64.1317847 202.073233,74.0102747 214.580288,74.0102747 L253.238458,74.0102747 L253.238458,317.287693 C253.277665,327.205383 244.769731,335.202256 234.301444,335.202256 Z" id="路径" fill="#EAF0F7" fill-rule="nonzero"></path>
                <path d="M245.906736,58.2909314 L214.580288,58.2909314 C210.777202,58.2909314 207.679844,55.4685057 207.679844,51.9796739 L207.679844,22.1482019 L245.906736,58.2909314 Z" id="路径" fill="#EAF0F7"></path>
                <path d="M210.131505,161.405775 L58.8684951,161.405775 C54.5232068,161.405775 51,164.93921 51,169.297112 C51,173.655015 54.5232068,177.18845 58.8684951,177.18845 L210.131505,177.18845 C214.476793,177.18845 218,173.655015 218,169.297112 C218,164.93921 214.476793,161.405775 210.131505,161.405775 Z M210.131505,207.81155 L58.8684951,207.81155 C54.5232068,207.81155 51,211.344985 51,215.702888 C51,220.06079 54.5232068,223.594225 58.8684951,223.594225 L210.131505,223.594225 C214.476793,223.594225 218,220.06079 218,215.702888 C218,211.344985 214.476793,207.81155 210.131505,207.81155 Z M210.131505,254.217325 L58.8684951,254.217325 C54.5232068,254.217325 51,257.75076 51,262.108663 C51,266.466565 54.5232068,270 58.8684951,270 L210.131505,270 C214.476793,270 218,266.466565 218,262.108663 C218,257.75076 214.476793,254.217325 210.131505,254.217325 Z M58.8684951,130.782675 L142.877403,130.782675 C147.222691,130.782675 150.745898,127.24924 150.745898,122.891337 C150.745898,118.533435 147.222691,115 142.877403,115 L58.8684951,115 C54.5232068,115 51,118.533435 51,122.891337 C51,127.24924 54.5232068,130.782675 58.8684951,130.782675 Z" id="形状" fill="#2B4C7E" fill-rule="nonzero"></path>
            </g>
        </g>
    </g>
</svg>