<?xml version="1.0" encoding="UTF-8"?>
<svg width="296px" height="401px" viewBox="0 0 296 401" version="1.1" xmlns="http://www.w3.org/2000/svg" xmlns:xlink="http://www.w3.org/1999/xlink">
    <!-- Generator: Sketch 52.4 (67378) - http://www.bohemiancoding.com/sketch -->
    <title>分组 3</title>
    <desc>Created with Sketch.</desc>
    <g id="Page-1" stroke="none" stroke-width="1" fill="none" fill-rule="evenodd">
        <g id="分组-3" transform="translate(3.000000, 3.000000)">
            <path d="M282.787565,30.7035291 L266.499482,30.7035291 L266.499482,7.21022209 C266.499482,3.24459994 263.253886,0 259.287047,0 L30.7129534,0 C26.746114,0 23.5005181,3.24459994 23.5005181,7.21022209 L23.5005181,30.7035291 L7.21243523,30.7035291 C3.24559585,30.7035291 0,33.948129 0,37.9137511 L0,70.4198357 C0,74.3854579 3.24559585,77.6300578 7.21243523,77.6300578 L34.8,77.6300578 L36.0621762,95.7156982 L20.7357513,95.7156982 C18.692228,95.7156982 16.7689119,96.5568908 15.3865285,98.0590204 C14.0041451,99.56115 13.3430052,101.604046 13.5233161,103.586857 L28.0082902,253.499392 C28.3689119,257.224673 31.4943005,260.048677 35.2207254,260.048677 L47.842487,260.048677 L56.9782383,388.270459 C57.2186528,392.055826 60.4041451,395 64.1906736,395 L225.86943,395 C229.655959,395 232.781347,392.055826 233.081865,388.270459 L242.157513,260.108762 L254.779275,260.108762 C258.505699,260.108762 261.631088,257.284758 261.99171,253.559477 L276.476684,103.646943 C276.656995,101.604046 275.995855,99.6212352 274.613472,98.1191056 C273.231088,96.616976 271.307772,95.7757834 269.264249,95.7757834 L253.937824,95.7757834 L255.2,77.690143 L282.787565,77.690143 C286.754404,77.690143 290,74.445543 290,70.4799209 L290,37.9738363 C290,33.948129 286.754404,30.7035291 282.787565,30.7035291 Z M31.9253886,8.42044417 L257.074611,8.42044417 L257.074611,30.7035291 L31.9253886,30.7035291 L31.9253886,8.42044417 Z M254.49885,251.628232 L36.5011497,251.628232 L22.7295337,104.136142 L268.270466,104.136142 L254.49885,251.628232 Z M246.302922,95.7156982 L44.6929951,95.7156982 L43.3450777,77.6300578 L247.715026,77.6300578 L246.302922,95.7156982 Z M281.512034,70.2096136 L7.42487047,70.2096136 L7.42487047,38.1239732 L281.57513,38.1239732 L281.57513,70.2096136 L281.512034,70.2096136 Z" id="形状" stroke="#2B4C7E" stroke-width="6" fill="#2B4C7E" fill-rule="nonzero"></path>
            <polygon id="路径" fill="#EAF0F7" points="250.003632 248.628232 39.9963681 248.628232 26.7295337 111.136142 263.270466 111.136142"></polygon>
            <polygon id="路径" fill="#EAF0F7" fill-rule="nonzero" points="224.505928 386.579556 66.4940719 386.579556 57.3274611 265.108762 233.672539 265.108762"></polygon>
        </g>
    </g>
</svg>