<?xml version="1.0" encoding="UTF-8"?>
<svg width="263px" height="300px" viewBox="0 0 263 300" version="1.1" xmlns="http://www.w3.org/2000/svg" xmlns:xlink="http://www.w3.org/1999/xlink">
    <!-- Generator: Sketch 52.4 (67378) - http://www.bohemiancoding.com/sketch -->
    <title>分组 4</title>
    <desc>Created with Sketch.</desc>
    <g id="Page-1" stroke="none" stroke-width="1" fill="none" fill-rule="evenodd">
        <g id="分组-4" transform="translate(3.000000, 3.000000)">
            <g id="分组">
                <g id="我">
                    <path d="M256.986083,286.152631 C253.712786,231.552631 216.529609,186.126316 166.253246,170.689473 C196.705937,156.431579 217.853639,125.447368 217.853639,89.5263157 C217.853639,40.0842107 177.838509,0 128.481611,0 C79.1247127,0 39.109582,40.0842103 39.109582,89.5263157 C39.109582,125.447368 60.2572844,156.431579 90.7467541,170.689473 C40.4703906,186.126315 3.28721313,231.552631 0.0139168043,286.152631 C-0.243533599,290.389474 3.10332009,294 7.36963934,294 C11.2313938,294 14.4679115,290.978947 14.7253619,287.110526 C18.2193299,227.242105 67.8336783,179.789473 128.481611,179.789473 C189.129543,179.789473 238.743891,227.242105 242.274638,287.110526 C242.49531,290.978947 245.731828,294 249.630361,294 C253.89668,294 257.243534,290.389473 256.986083,286.152631 Z M53.8210271,89.5263157 C53.8210271,48.2263159 87.2527861,14.7368421 128.481611,14.7368421 C169.710435,14.7368421 203.142194,48.2263159 203.142194,89.5263157 C203.142194,130.826315 169.710435,164.315789 128.481611,164.315789 C87.2527861,164.315789 53.8210271,130.826315 53.8210271,89.5263157 Z" id="形状" stroke="#2B4C7E" stroke-width="6" fill="#2B4C7E" fill-rule="nonzero"></path>
                    <path d="M53.8210271,89.5263157 C53.8210271,48.2263159 87.2527861,14.7368421 128.481611,14.7368421 C169.710435,14.7368421 203.142194,48.2263159 203.142194,89.5263157 C203.142194,130.826315 169.710435,164.315789 128.481611,164.315789 C87.2527861,164.315789 53.8210271,130.826315 53.8210271,89.5263157 Z" id="路径" fill="#EAF0F7"></path>
                </g>
                <path d="M81,249 C113.701378,274.20966 145.64082,274.20966 176.818326,249" id="路径-2" stroke="#2B4C7E" stroke-width="14" stroke-linecap="round" stroke-linejoin="round" fill-rule="nonzero" transform="translate(128.909163, 258.453623) scale(-1, -1) translate(-128.909163, -258.453623) "></path>
            </g>
        </g>
    </g>
</svg>