<?xml version="1.0" standalone="no"?><!DOCTYPE svg PUBLIC "-//W3C//DTD SVG 1.1//EN" "http://www.w3.org/Graphics/SVG/1.1/DTD/svg11.dtd"><svg t="1546680117135" class="icon" style="" viewBox="0 0 1453 1024" version="1.1" xmlns="http://www.w3.org/2000/svg" p-id="5125" xmlns:xlink="http://www.w3.org/1999/xlink" width="283.7890625" height="200"><defs><style type="text/css"></style></defs><path d="M1339.820678 0H113.470011A113.477397 113.477397 0 0 0 0 113.477397V910.522603a113.477397 113.477397 0 0 0 113.477397 113.477397h1226.335894a113.477397 113.477397 0 0 0 113.477397-113.477397V113.477397A113.477397 113.477397 0 0 0 1339.820678 0zM487.94616 174.097654a182.68066 182.68066 0 1 1-185.398859 182.658501 184.239193 184.239193 0 0 1 185.398859-182.665888z m285.484697 614.719092c0 61.0856-99.738677 61.0856-215.23995 61.0856H430.457741c-120.250734 0-215.23995 0-215.23995-61.0856v-12.58644a213.82176 213.82176 0 0 1 215.23995-211.930839h127.718393a213.858692 213.858692 0 0 1 215.247337 211.930839z m31.924058-510.378683a42.198553 42.198553 0 0 1 42.198554-42.198553h346.422568a42.205939 42.205939 0 0 1 42.20594 42.198553 40.632634 40.632634 0 0 1-40.315019 42.198553h-348.313489a42.191167 42.191167 0 0 1-42.198554-42.198553z m390.512043 505.769564h-251.943015a42.198553 42.198553 0 1 1 0-84.404492h251.943015a42.198553 42.198553 0 0 1 0 84.404492z m0-233.041195h-313.036001a42.198553 42.198553 0 0 1 0-84.404492h313.036001a42.198553 42.198553 0 0 1 0 84.397106z" p-id="5126" fill="#dbdbdb"></path></svg>