<?xml version="1.0" standalone="no"?><!DOCTYPE svg PUBLIC "-//W3C//DTD SVG 1.1//EN" "http://www.w3.org/Graphics/SVG/1.1/DTD/svg11.dtd"><svg t="1546914885675" class="icon" style="" viewBox="0 0 1024 1024" version="1.1" xmlns="http://www.w3.org/2000/svg" p-id="18695" xmlns:xlink="http://www.w3.org/1999/xlink" width="200" height="200"><defs><style type="text/css"></style></defs><path d="M319.466667 575.466667c-17.672533 0-32-14.327467-32-32l0-64c0-17.672533 14.327467-32 32-32s32 14.327467 32 32l0 64C351.466667 561.1392 337.1392 575.466667 319.466667 575.466667z" p-id="18696" fill="#63473a"></path><path d="M319.466667 767.639467c-17.672533 0-32-14.327467-32-32l0-64c0-17.672533 14.327467-32 32-32s32 14.327467 32 32l0 64C351.466667 753.312 337.1392 767.639467 319.466667 767.639467z" p-id="18697" fill="#63473a"></path><path d="M319.466667 383.6384c-17.672533 0-32-14.327467-32-32l0-64c0-17.672533 14.327467-32 32-32s32 14.327467 32 32l0 64C351.466667 369.310933 337.1392 383.6384 319.466667 383.6384z" p-id="18698" fill="#63473a"></path><path d="M857.066667 831.466667l-690.133333 0c-57.051733 0-103.466667-46.414933-103.466667-103.466667l0-432c0-57.050667 46.414933-103.466667 103.466667-103.466667l690.133333 0c57.051733 0 103.466667 46.416 103.466667 103.466667l0 117.825067c0 17.672533-14.327467 32-32 32-36.1952 0-65.6416 29.447467-65.6416 65.6416 0 36.196267 29.4464 65.6416 65.6416 65.6416 17.672533 0 32 14.327467 32 32L960.533333 728C960.533333 785.051733 914.1184 831.466667 857.066667 831.466667zM166.933333 256.533333c-21.761067 0-39.466667 17.7056-39.466667 39.466667l0 432c0 21.762133 17.7056 39.466667 39.466667 39.466667l690.133333 0c21.761067 0 39.466667-17.704533 39.466667-39.466667l0-90.887467c-56.061867-14.283733-97.6416-65.2-97.6416-125.645867s41.579733-111.361067 97.6416-125.645867L896.533333 296c0-21.761067-17.7056-39.466667-39.466667-39.466667L166.933333 256.533333z" p-id="18699" fill="#63473a"></path></svg>