<?xml version="1.0" encoding="UTF-8"?>
<svg width="259px" height="259px" viewBox="0 0 259 259" version="1.1" xmlns="http://www.w3.org/2000/svg" xmlns:xlink="http://www.w3.org/1999/xlink">
    <!-- Generator: Sketch 52.4 (67378) - http://www.bohemiancoding.com/sketch -->
    <title>购物车 (1)</title>
    <desc>Created with Sketch.</desc>
    <g id="Page-1" stroke="none" stroke-width="1" fill="none" fill-rule="evenodd">
        <g id="购物车-(1)" transform="translate(1.000000, 1.000000)" fill-rule="nonzero">
            <path d="M106.27809,242.723943 C98.4125203,242.723943 92.0023907,236.313652 92.0023907,228.447885 C92.0023907,220.582118 98.4125203,214.171828 106.27809,214.171828 C114.143659,214.171828 120.553789,220.582118 120.553789,228.447885 C120.553789,236.313652 114.143659,242.723943 106.27809,242.723943 Z M106.27809,199.895771 C90.5159839,199.895771 77.7266916,212.716351 77.7266916,228.447885 C77.7266916,244.210387 90.5159839,257 106.27809,257 C122.040196,257 134.829488,244.179419 134.829488,228.447885 C134.829488,212.716351 122.040196,199.895771 106.27809,199.895771 Z M215.869628,242.723943 C208.004059,242.723943 201.593929,236.313652 201.593929,228.447885 C201.593929,220.582118 208.004059,214.171828 215.869628,214.171828 C223.735198,214.171828 230.145327,220.582118 230.145327,228.447885 C230.145327,236.313652 223.704231,242.723943 215.869628,242.723943 Z M215.869628,199.895771 C200.107522,199.895771 187.31823,212.716351 187.31823,228.447885 C187.31823,244.210387 200.107522,257 215.869628,257 C231.631734,257 244.421027,244.179419 244.421027,228.447885 C244.421027,212.716351 231.600767,199.895771 215.869628,199.895771 Z M252.596264,35.2101458 C249.004114,30.998554 243.584923,28.5521147 237.732196,28.5521147 L52.8293768,28.5521147 L51.4049036,20.0360284 C49.546895,8.79479455 39.1420471,0 27.7462612,0 L7.15333297,0 C3.22054818,0 0,3.1896614 0,7.15351247 C0,11.086396 3.18958137,14.3070249 7.15333297,14.3070249 L27.7462612,14.3070249 C32.1435482,14.3070249 36.6027687,18.1160381 37.3150053,22.4205326 L61.1594486,165.583685 C63.0174571,176.824919 73.4223051,185.619713 84.8180909,185.619713 L237.701229,185.619713 C241.634014,185.619713 244.854562,182.430052 244.854562,178.466201 C244.854562,174.533317 241.664981,171.312688 237.701229,171.312688 L84.8490577,171.312688 C80.4517708,171.312688 75.9925503,167.503675 75.2803136,163.199181 L71.7500974,142.079287 L224.137766,129.692252 C235.192917,128.732257 245.319064,119.411013 247.146106,108.41752 L256.71485,50.9107121 C257.674821,45.1817086 256.188414,39.4527051 252.596264,35.2101458 Z" id="形状" stroke="#2B4C7E" stroke-width="2" fill="#2B4C7E"></path>
            <path d="M233.056208,106.094951 C232.313004,110.616219 227.482182,115.075551 222.899094,115.47813 L69.3966199,127.958067 L55.2138211,42.8281721 L237.732196,42.8281721 C239.404403,42.8281721 240.79791,43.3855886 241.664981,44.4384866 C242.532051,45.4913845 242.872686,46.9468611 242.593985,48.5881431 L233.056208,106.094951 Z" id="路径" fill="#EAF0F7"></path>
        </g>
    </g>
</svg>