<?xml version="1.0" standalone="no"?><!DOCTYPE svg PUBLIC "-//W3C//DTD SVG 1.1//EN" "http://www.w3.org/Graphics/SVG/1.1/DTD/svg11.dtd"><svg t="1546680158896" class="icon" style="" viewBox="0 0 1024 1024" version="1.1" xmlns="http://www.w3.org/2000/svg" p-id="5994" xmlns:xlink="http://www.w3.org/1999/xlink" width="200" height="200"><defs><style type="text/css"></style></defs><path d="M532.15232 40.63232c-11.264 0.24576-20.31616 9.5232-20.15232 20.80768 0 62.5664-23.92064 81.2032-54.4768 108.6464C426.96704 197.4272 389.44768 233.6768 389.44768 307.2c-0.08192 7.3728 3.74784 14.2336 10.15808 18.00192 6.38976 3.6864 14.2336 3.6864 20.64384 0 6.38976-3.76832 10.24-10.6496 10.15808-18.00192 0-61.11232 23.7568-79.11424 54.4768-106.63936C515.60448 173.03552 552.96 136.15104 552.96 61.44a20.54144 20.54144 0 0 0-20.80768-20.80768z m102.56384 102.4c-11.264 0.24576-20.31616 9.5232-20.15232 20.80768 0 39.99744-13.76256 49.52064-34.16064 67.6864C560.00512 249.6512 532.48 276.72576 532.48 327.68c-0.08192 7.3728 3.76832 14.2336 10.15808 18.00192 6.41024 3.6864 14.2336 3.6864 20.64384 0 6.38976-3.76832 10.24-10.6496 10.15808-18.00192 0-38.4 13.5168-47.2064 34.16064-65.59744 20.64384-18.3296 47.9232-46.08 47.9232-98.24256a20.54144 20.54144 0 0 0-20.80768-20.80768zM225.28 389.12a20.48 20.48 0 0 0-20.48 20.48v245.76c0 67.03104 32.48128 126.48448 82.47296 163.84h408.49408a204.67712 204.67712 0 0 0 78.15168-123.6992c46.7968-3.82976 81.03936-24.22784 100.5568-55.58272 21.05344-34.07872 26.09152-77.35296 26.3168-124.39552 0.08192-0.16384 0.08192-0.32768 0.08192-0.49152A19.456 19.456 0 0 0 901.12 512c0-33.6896-27.7504-61.44-61.44-61.44h-61.44v-40.96a20.48 20.48 0 0 0-20.48-20.48z m552.96 102.4h61.44c11.59168 0 20.48 8.88832 20.48 20.48 0 45.3632-5.9392 82.80064-20.48 106.31168-12.24704 19.68128-29.51168 32.1536-61.44 35.77856zM143.36 860.16a20.48 20.48 0 0 0-20.48 20.48c0 56.7296 78.39744 102.4 143.36 102.4h450.56c66.31424 0 143.36-44.72832 143.36-102.4a20.48 20.48 0 0 0-20.48-20.48z" p-id="5995" fill="#dbdbdb"></path></svg>